<svg width="210" height="210" viewBox="0 0 210 210" fill="none" xmlns="http://www.w3.org/2000/svg">
<path d="M210 160.607H0V160.712H210V160.607Z" fill="#EBEBEB"/>
<path d="M180.477 163.467H139.486V163.572H180.477V163.467Z" fill="#EBEBEB"/>
<path d="M140.981 165.894H121.381V165.999H140.981V165.894Z" fill="#EBEBEB"/>
<path d="M188.959 167.367H180.898V167.472H188.959V167.367Z" fill="#EBEBEB"/>
<path d="M91.9805 165.947H53.1191V166.052H91.9805V165.947Z" fill="#EBEBEB"/>
<path d="M49.3788 165.947H41.0195V166.052H49.3788V165.947Z" fill="#EBEBEB"/>
<path d="M38.0755 164.173H24.2734V164.278H38.0755V164.173Z" fill="#EBEBEB"/>
<path d="M99.5458 141.876H18.4442C17.1225 141.876 16.0469 140.8 16.0469 139.479V25.4772C16.0469 24.1555 17.1225 23.0798 18.4442 23.0798H99.5458C100.867 23.0798 101.943 24.1555 101.943 25.4772V139.479C101.943 140.8 100.867 141.876 99.5458 141.876ZM18.4442 23.1853C17.18 23.1853 16.1519 24.2134 16.1519 25.4776V139.479C16.1519 140.743 17.18 141.771 18.4442 141.771H99.5458C100.81 141.771 101.838 140.743 101.838 139.479V25.4772C101.838 24.2134 100.81 23.1848 99.5458 23.1848L18.4442 23.1853Z" fill="#EBEBEB"/>
<path d="M190.391 141.876H109.29C107.968 141.876 106.893 140.8 106.893 139.479V25.4772C106.893 24.1555 107.968 23.0798 109.29 23.0798H190.391C191.713 23.0798 192.788 24.1555 192.788 25.4772V139.479C192.788 140.8 191.713 141.876 190.391 141.876ZM109.29 23.1853C108.026 23.1853 106.998 24.2134 106.998 25.4776V139.479C106.998 140.743 108.026 141.771 109.29 141.771H190.391C191.655 141.771 192.683 140.743 192.683 139.479V25.4772C192.683 24.2134 191.655 23.1848 190.391 23.1848L109.29 23.1853Z" fill="#EBEBEB"/>
<path d="M164.251 156.742H37.3947L29.8301 70.6902H156.686L164.251 156.742Z" fill="#F0F0F0"/>
<path d="M35.1526 159.483L37.3942 156.742L29.8296 70.6902L27.5918 73.4735L35.1526 159.483Z" fill="#E0E0E0"/>
<path d="M39.0695 153.475L32.1013 74.2076C32.0278 73.3722 32.686 72.6536 33.5247 72.6536H153.585C154.326 72.6536 154.944 73.2193 155.009 73.9572L161.977 153.224C162.051 154.06 161.392 154.778 160.554 154.778H40.4929C39.7525 154.778 39.1346 154.212 39.0695 153.475Z" fill="#FAFAFA"/>
<path d="M55.2243 156.742H36.1113L34.7598 160.607H53.8727L55.2243 156.742Z" fill="#E0E0E0"/>
<path d="M55.2246 156.742H180.898L179.546 160.607H53.873L55.2246 156.742Z" fill="#F5F5F5"/>
<path d="M106.974 156.742H131.064L130.805 159.273H106.715L106.974 156.742Z" fill="#E0E0E0"/>
<path d="M143.479 65.043H173.916C176.438 81.7405 164.774 95.4804 148.077 95.4804C142.734 95.4804 137.272 94.0738 132.242 91.4026L143.479 65.043Z" fill="#E0E0E0"/>
<path d="M143.48 65.0429L159.523 41.7266C163.359 44.5834 166.636 48.1517 169.123 52.1795C171.61 56.2073 173.246 60.5984 173.917 65.0429H143.48Z" fill="#EBEBEB"/>
<path d="M143.481 65.0429L138.883 34.6055C142.433 34.6055 146.051 35.2266 149.57 36.4409C153.09 37.6551 156.459 39.4439 159.523 41.7262L143.481 65.0429Z" fill="#E6E6E6"/>
<path d="M143.48 65.0429L132.243 91.4021C122.017 85.9719 114.683 75.9032 113.042 65.0429C110.52 48.3453 122.184 34.6055 138.882 34.6055L143.48 65.0429Z" fill="#F0F0F0"/>
<path d="M105.906 119.36H132.906C133.263 121.719 133.308 124.069 133.042 126.348C132.775 128.627 132.199 130.816 131.328 132.86L105.906 119.36Z" fill="#EBEBEB"/>
<path d="M105.906 119.36L106.578 92.7705C112.995 93.8726 119.154 97.1435 123.968 102.005C128.781 106.867 131.947 113.014 132.906 119.36H105.906V119.36Z" fill="#E0E0E0"/>
<path d="M105.906 119.36L81.929 128.594C80.4048 125.635 79.3817 122.509 78.9059 119.36C76.6685 104.548 87.0156 92.3601 101.827 92.3601C103.399 92.3601 104.989 92.4974 106.578 92.7704L105.906 119.36Z" fill="#F0F0F0"/>
<path d="M105.906 119.36L131.328 132.86C127.771 141.203 119.618 146.36 109.984 146.36C98.6604 146.36 87.4098 139.236 81.9297 128.594L105.906 119.36Z" fill="white"/>
<path d="M105 179.576C149.974 179.576 186.433 177.446 186.433 174.82C186.433 172.193 149.974 170.064 105 170.064C60.0254 170.064 23.5664 172.193 23.5664 174.82C23.5664 177.446 60.0254 179.576 105 179.576Z" fill="#F5F5F5"/>
<path d="M101.045 100.543H63.213C60.8123 100.543 58.688 98.5782 58.4922 96.1775L56.5985 72.9154C56.4032 70.5146 58.2075 68.5503 60.6082 68.5503H98.4397C100.84 68.5503 102.965 70.5146 103.16 72.9154L105.054 96.1775C105.25 98.5782 103.445 100.543 101.045 100.543Z" fill="white"/>
<path d="M101.045 100.724H63.2131C60.7137 100.724 58.5146 98.6911 58.3113 96.1921L56.4175 72.93C56.3188 71.7145 56.7036 70.5691 57.5011 69.7035C58.2954 68.8421 59.3991 68.3679 60.6087 68.3679H98.4402C100.94 68.3679 103.138 70.4011 103.342 72.9001L105.236 96.1623C105.335 97.3773 104.95 98.5227 104.152 99.3883C103.358 100.25 102.255 100.724 101.045 100.724ZM60.6087 68.7321C59.5016 68.7321 58.4928 69.1651 57.7687 69.9505C57.0408 70.7405 56.6897 71.788 56.78 72.9006L58.6738 96.1627C58.8624 98.4773 60.8985 100.361 63.2131 100.361H101.045C102.152 100.361 103.161 99.9276 103.885 99.1422C104.613 98.3521 104.964 97.3047 104.873 96.1925L102.98 72.9304C102.791 70.6153 100.755 68.7321 98.4402 68.7321H60.6087Z" fill="#407BFF"/>
<path d="M90.7788 93.7507C89.2954 95.366 87.3781 96.526 85.218 97.1191L84.5918 95.3257C89.2496 94.0527 92.403 89.709 91.9825 84.5472C91.7318 81.4661 90.2568 78.676 88.0736 76.6571L89.2798 75.3438C94.7407 80.3934 95.4169 88.7018 90.7788 93.7507Z" fill="#E0E0E0"/>
<path d="M89.2796 75.3441L88.0733 76.6574C85.8901 74.6385 82.9985 73.3907 79.9173 73.3907C76.8362 73.3907 74.1482 74.6418 72.2973 76.6608L70.873 75.3441C73.1154 72.903 76.3175 71.5317 79.7661 71.5317C83.2181 71.5317 86.6403 72.903 89.2796 75.3441Z" fill="#263238"/>
<path d="M85.2183 97.1189C80.8305 98.3192 75.9241 97.0315 72.3722 93.7505C66.9155 88.7013 66.2393 80.3932 70.8736 75.344L72.2978 76.6607C70.4431 78.6796 69.4225 81.4659 69.6732 84.547C70.1747 90.7055 75.5755 95.7001 81.7344 95.7001C82.731 95.7001 83.6916 95.5691 84.5921 95.3255L85.2183 97.1189Z" fill="#407BFF"/>
<path d="M49.5118 30.949H46.4785V31.3123H49.5118V30.949Z" fill="#407BFF"/>
<path d="M43.5393 30.949H36.6328V31.3123H43.5393V30.949Z" fill="#407BFF"/>
<path d="M75.6598 64.3836H37.8283C35.4276 64.3836 33.3032 62.4193 33.1075 60.0185L31.2137 36.7564C31.0184 34.3557 32.8227 32.3914 35.2234 32.3914H73.0549C75.4557 32.3914 77.58 34.3557 77.7753 36.7564L79.6691 60.0185C79.8648 62.4193 78.0605 64.3836 75.6598 64.3836Z" fill="white"/>
<path d="M75.66 64.5654H37.8281C35.3286 64.5654 33.1295 62.5321 32.9262 60.0331L31.0329 36.771C30.9338 35.556 31.3185 34.4102 32.1165 33.545C32.9107 32.6832 34.0145 32.209 35.2241 32.209H73.0556C75.555 32.209 77.7541 34.2422 77.9574 36.7412L79.8512 60.0033C79.9499 61.2188 79.5651 62.3641 78.7676 63.2298C77.9733 64.0912 76.8696 64.5654 75.66 64.5654ZM35.2236 32.5727C34.1165 32.5727 33.1081 33.0057 32.3836 33.7915C31.6557 34.5811 31.3046 35.6286 31.3953 36.7412L33.2891 60.0033C33.4777 62.3184 35.5139 64.2016 37.8285 64.2016H75.6604C76.7671 64.2016 77.7759 63.769 78.5004 62.9832C79.2283 62.1932 79.5794 61.1457 79.4887 60.0327L77.5949 36.7706C77.4063 34.4556 75.3698 32.5723 73.0556 32.5723L35.2236 32.5727Z" fill="#407BFF"/>
<path d="M34.6359 39.066H54.6833L54.522 37.0857H34.4746L34.6359 39.066Z" fill="#E0E0E0"/>
<path d="M74.7302 39.066H54.6828L54.5215 37.0857H74.5689L74.7302 39.066Z" fill="#407BFF"/>
<path d="M35.0558 44.2219H40.775L40.6137 42.2412H34.8945L35.0558 44.2219Z" fill="#E0E0E0"/>
<path d="M75.1503 44.2219H40.7746L40.6133 42.2412H74.989L75.1503 44.2219Z" fill="#407BFF"/>
<path d="M35.4757 49.3775H53.3207L53.1594 47.3972H35.3145L35.4757 49.3775Z" fill="#E0E0E0"/>
<path d="M75.5698 49.3775H53.3195L53.1582 47.3972H75.4085L75.5698 49.3775Z" fill="#407BFF"/>
<path d="M35.8957 54.5332H66.3507L66.1894 52.5525H35.7344L35.8957 54.5332Z" fill="#E0E0E0"/>
<path d="M75.9906 54.5332H66.3507L66.1895 52.5525H75.8293L75.9906 54.5332Z" fill="#407BFF"/>
<path d="M36.3156 59.6888H50.4015L50.2403 57.7085H36.1543L36.3156 59.6888Z" fill="#E0E0E0"/>
<path d="M76.4104 59.6888H50.4015L50.2402 57.7085H76.2492L76.4104 59.6888Z" fill="#407BFF"/>
<path d="M127.376 64.3836H89.5446C87.1439 64.3836 85.0196 62.4193 84.8243 60.0185L82.9305 36.7564C82.7352 34.3557 84.5395 32.3914 86.9402 32.3914H124.772C127.172 32.3914 129.297 34.3557 129.493 36.7564L131.386 60.0185C131.582 62.4193 129.777 64.3836 127.376 64.3836Z" fill="white"/>
<path d="M127.377 64.5654H89.5452C87.0457 64.5654 84.8466 62.5321 84.6433 60.0331L82.7496 36.771C82.6509 35.556 83.0356 34.4102 83.8332 33.5446C84.6274 32.6832 85.7307 32.209 86.9403 32.209H124.772C127.272 32.209 129.47 34.2422 129.674 36.7412L131.568 60.0033C131.667 61.2184 131.282 62.3641 130.484 63.2293C129.69 64.0912 128.587 64.5654 127.377 64.5654ZM86.9403 32.5727C85.8336 32.5727 84.8248 33.0053 84.1003 33.7911C83.3724 34.5811 83.0213 35.6286 83.1116 36.7412L85.0054 60.0033C85.194 62.3184 87.2305 64.2016 89.5447 64.2016H127.376C128.483 64.2016 129.492 63.7686 130.216 62.9828C130.944 62.1932 131.295 61.1457 131.205 60.0331L129.311 36.771C129.122 34.456 127.086 32.5727 124.771 32.5727H86.9403Z" fill="#407BFF"/>
<path d="M108.413 59.6888H107.745L105.904 37.0857H106.572L108.413 59.6888Z" fill="#E0E0E0"/>
<path d="M109.421 50.2964H105.207L104.488 41.4651H108.702L109.421 50.2964Z" fill="#407BFF"/>
<path d="M100.121 59.6888H99.4533L97.6133 37.0857H98.2811L100.121 59.6888Z" fill="#E0E0E0"/>
<path d="M101.289 52.2579H97.0757L96.4453 44.5168H100.659L101.289 52.2579Z" fill="#407BFF"/>
<path d="M91.8281 59.6888H91.1603L89.3203 37.0857H89.9877L91.8281 59.6888Z" fill="#E0E0E0"/>
<path d="M92.4781 45.8889H88.2646L87.832 40.5742H92.0455L92.4781 45.8889Z" fill="#263238"/>
<path d="M116.705 59.6888H116.037L114.197 37.0857H114.865L116.705 59.6888Z" fill="#E0E0E0"/>
<path d="M118.122 55.3095H113.908L112.781 41.4651H116.994L118.122 55.3095Z" fill="#263238"/>
<path d="M124.998 59.6888H124.33L122.49 37.0857H123.158L124.998 59.6888Z" fill="#E0E0E0"/>
<path d="M126.55 56.9684H122.336L121.434 45.8809H125.647L126.55 56.9684Z" fill="#407BFF"/>
<path d="M86.8918 136.404H49.0603C46.6596 136.404 44.5352 134.44 44.3399 132.039L42.4461 108.777C42.2508 106.376 44.0551 104.412 46.4559 104.412H84.2874C86.6881 104.412 88.8124 106.376 89.0077 108.777L90.9015 132.039C91.0972 134.44 89.2925 136.404 86.8918 136.404Z" fill="white"/>
<path d="M86.8923 136.586H49.0608C46.5614 136.586 44.3622 134.553 44.159 132.054L42.2652 108.792C42.1665 107.577 42.5512 106.431 43.3488 105.565C44.143 104.704 45.2468 104.23 46.4564 104.23H84.2879C86.7873 104.23 88.986 106.263 89.1897 108.762L91.0835 132.024C91.1826 133.239 90.7979 134.384 90.0003 135.25C89.2061 136.112 88.1023 136.586 86.8923 136.586ZM46.4564 104.593C45.3492 104.593 44.3404 105.026 43.6163 105.812C42.8885 106.602 42.5373 107.649 42.6276 108.762L44.5214 132.024C44.71 134.339 46.7466 136.222 49.0608 136.222H86.8923C87.9994 136.222 89.0083 135.789 89.7323 135.003C90.4602 134.214 90.8113 133.166 90.7206 132.054L88.8268 108.792C88.6382 106.477 86.6021 104.593 84.2874 104.593H46.4564Z" fill="#407BFF"/>
<path d="M51.574 119.853L59.7278 129.274L69.0783 114.85L74.8609 122.304L76.2716 120.127L85.7233 131.455L49.4219 131.442L51.574 119.853Z" fill="#407BFF"/>
<path d="M78.7953 120.438L75.0056 128.552L62.9184 109.361L57.2266 121.548L55.4029 118.653L49.4238 131.455L85.7232 131.437L78.7953 120.438Z" fill="#E0E0E0"/>
<path d="M156.608 66.8053C157.62 68.7041 158.49 70.5807 159.308 72.5353C160.106 74.4909 160.844 76.4775 161.421 78.5766C161.568 79.0974 161.695 79.6346 161.817 80.1743C161.866 80.3574 161.984 80.9421 161.984 81.3133C162.003 81.7258 161.971 82.0975 161.92 82.4528C161.692 83.8493 161.203 84.9195 160.671 85.9308C159.582 87.933 158.27 89.592 156.745 91.159C156.287 91.629 155.535 91.639 155.065 91.1812C154.681 90.8074 154.604 90.2375 154.838 89.7852L154.868 89.7285C155.768 87.9901 156.66 86.1559 157.262 84.4155C157.552 83.5532 157.782 82.6708 157.781 82.021C157.776 81.8661 157.771 81.7233 157.747 81.6241C157.738 81.5725 157.728 81.5259 157.712 81.5002L157.634 81.2533C157.494 80.8009 157.35 80.3482 157.182 79.8921C156.546 78.0684 155.76 76.2372 154.943 74.4207C154.129 72.6097 153.253 70.768 152.388 69.0174L152.37 68.9817C151.787 67.8024 152.271 66.3735 153.45 65.7901C154.606 65.2181 156.004 65.6755 156.608 66.8053Z" fill="#407BFF"/>
<path d="M155.295 89.5495L153.291 90.1807L155.65 92.9431C155.65 92.9431 156.561 92.1417 156.889 90.9817C157 90.5902 156.837 90.1715 156.508 89.9334L156.173 89.6914C155.92 89.5079 155.594 89.4554 155.295 89.5495Z" fill="#7F3E3B"/>
<path d="M150.529 91.8833L153.057 93.8893L155.65 92.9426L153.291 90.1807L150.529 91.8833Z" fill="#7F3E3B"/>
<path d="M141.897 52.7575C141.847 53.0061 141.674 53.1804 141.511 53.1477C141.349 53.1145 141.258 52.8864 141.309 52.6378C141.359 52.3891 141.532 52.2148 141.695 52.2476C141.857 52.2812 141.948 52.5093 141.897 52.7575Z" fill="#263238"/>
<path d="M141.697 53.1855C141.697 53.1855 140.841 54.5043 140.078 55.0697C140.434 55.5695 141.22 55.5338 141.22 55.5338L141.697 53.1855Z" fill="#630F0F"/>
<path d="M143.086 51.5626C143.122 51.5626 143.159 51.5496 143.187 51.5231C143.248 51.4672 143.252 51.3732 143.195 51.3127C142.636 50.7075 141.958 50.815 141.929 50.82C141.848 50.8339 141.793 50.9107 141.807 50.9918C141.821 51.0729 141.898 51.1266 141.978 51.1136C142 51.1102 142.531 51.0321 142.977 51.5147C143.006 51.5466 143.046 51.5626 143.086 51.5626Z" fill="#263238"/>
<path d="M148.798 57.28C148.347 59.5799 148.075 62.7661 149.684 64.3008C149.684 64.3008 149.055 66.6334 144.782 66.6334C140.083 66.6334 142.521 64.5859 142.521 64.5859C144.474 63.9799 144.457 61.7547 144.011 59.968L148.798 57.28Z" fill="#7F3E3B"/>
<path d="M141.697 64.2268C141.697 64.2268 142.382 62.6031 143.082 62.3234C143.783 62.0432 148.239 61.3107 149.266 61.9571C150.292 62.6035 150.986 64.6804 150.986 64.6804L141.697 64.2268Z" fill="#407BFF"/>
<path d="M146.407 171.771C146.003 171.771 145.614 171.716 145.483 171.534C145.437 171.471 145.402 171.363 145.489 171.209C145.539 171.122 145.618 171.064 145.725 171.034C146.249 170.892 147.347 171.518 147.394 171.545C147.421 171.561 147.435 171.591 147.43 171.622C147.425 171.652 147.402 171.677 147.371 171.683C147.171 171.723 146.783 171.771 146.407 171.771ZM145.908 171.161C145.856 171.161 145.807 171.167 145.764 171.179C145.695 171.197 145.648 171.231 145.618 171.283C145.566 171.375 145.585 171.421 145.604 171.447C145.75 171.651 146.545 171.655 147.129 171.572C146.838 171.423 146.276 171.161 145.908 171.161Z" fill="#407BFF"/>
<path d="M147.355 171.684C147.345 171.684 147.335 171.682 147.325 171.678C146.945 171.507 146.194 170.827 146.251 170.472C146.265 170.389 146.324 170.285 146.528 170.264C146.681 170.248 146.819 170.292 146.941 170.392C147.341 170.72 147.426 171.567 147.429 171.603C147.432 171.629 147.42 171.655 147.399 171.67C147.386 171.68 147.371 171.684 147.355 171.684ZM146.588 170.41C146.574 170.41 146.559 170.411 146.544 170.412C146.41 170.426 146.402 170.478 146.399 170.496C146.364 170.709 146.875 171.243 147.262 171.476C147.222 171.229 147.11 170.722 146.847 170.507C146.768 170.441 146.683 170.41 146.588 170.41Z" fill="#407BFF"/>
<path d="M150.812 171.61H147.669L147.355 164.33H150.499L150.812 171.61Z" fill="#7F3E3B"/>
<path d="M147.69 171.246H151.123C151.251 171.246 151.363 171.335 151.39 171.46L152.012 174.255C152.076 174.545 151.856 174.819 151.559 174.814C150.321 174.793 148.531 174.72 146.975 174.72C145.155 174.72 144.935 174.819 142.8 174.819C141.51 174.819 141.152 173.514 141.692 173.396C144.151 172.858 144.808 172.801 146.933 171.49C147.163 171.348 147.418 171.246 147.69 171.246Z" fill="#263238"/>
<path d="M155.312 64.3117C158.259 64.987 160.203 72.9385 160.203 72.9385L155.284 76.6341C155.284 76.6341 152.6 74.9713 151.633 71.2089C150.621 67.2664 152.3 63.6212 155.312 64.3117Z" fill="#263238"/>
<path opacity="0.2" d="M152.786 69.843C154.386 71.4264 155.421 73.9258 155.545 76.4332L155.284 76.6344C155.284 76.6344 152.598 74.9691 151.631 71.208C151.571 70.9728 151.519 70.7372 151.477 70.5062L152.786 69.843Z" fill="black"/>
<path d="M165.904 76.1439L142.037 85.6819L149.131 103.432L172.997 93.8937L165.904 76.1439Z" fill="#407BFF"/>
<path opacity="0.5" d="M165.553 76.2835L142.037 85.6814L149.131 103.431L172.647 94.0334L165.553 76.2835Z" fill="white"/>
<g opacity="0.5">
<path d="M146.346 85.7811L144.119 86.6709L144.75 88.2489L146.976 87.3591L146.346 85.7811Z" fill="#407BFF"/>
<path d="M150.021 84.3121L147.795 85.2019L148.426 86.7799L150.652 85.8901L150.021 84.3121Z" fill="#407BFF"/>
<path d="M153.699 82.8428L151.473 83.7327L152.103 85.3107L154.33 84.4208L153.699 82.8428Z" fill="#407BFF"/>
<path d="M157.375 81.3739L155.148 82.2637L155.779 83.8417L158.006 82.9518L157.375 81.3739Z" fill="#407BFF"/>
<path d="M161.051 79.9046L158.824 80.7944L159.455 82.3724L161.681 81.4826L161.051 79.9046Z" fill="#407BFF"/>
<path d="M164.727 78.4381L162.5 79.3279L163.131 80.9059L165.357 80.0161L164.727 78.4381Z" fill="#407BFF"/>
<path d="M147.387 88.3861L145.16 89.2759L145.791 90.8543L148.018 89.9644L147.387 88.3861Z" fill="#407BFF"/>
<path d="M151.063 86.9178L148.836 87.8076L149.467 89.386L151.693 88.4962L151.063 86.9178Z" fill="#407BFF"/>
<path d="M154.74 85.4486L152.514 86.3384L153.144 87.9168L155.371 87.0269L154.74 85.4486Z" fill="#407BFF"/>
<path d="M158.416 83.9796L156.189 84.8694L156.82 86.4474L159.047 85.5576L158.416 83.9796Z" fill="#407BFF"/>
<path d="M162.092 82.5103L159.865 83.4001L160.496 84.9785L162.723 84.0887L162.092 82.5103Z" fill="#407BFF"/>
<path d="M165.768 81.0413L163.541 81.9312L164.172 83.5091L166.398 82.6193L165.768 81.0413Z" fill="#407BFF"/>
<path d="M148.428 90.993L146.201 91.8828L146.832 93.4608L149.058 92.571L148.428 90.993Z" fill="#407BFF"/>
<path d="M152.105 89.5228L149.879 90.4126L150.51 91.9906L152.736 91.1008L152.105 89.5228Z" fill="#407BFF"/>
<path d="M155.781 88.0548L153.555 88.9446L154.185 90.5226L156.412 89.6328L155.781 88.0548Z" fill="#407BFF"/>
<path d="M159.457 86.5855L157.23 87.4753L157.861 89.0533L160.088 88.1635L159.457 86.5855Z" fill="#407BFF"/>
<path d="M163.133 85.119L160.906 86.0088L161.537 87.5868L163.763 86.697L163.133 85.119Z" fill="#407BFF"/>
<path d="M166.811 83.65L164.584 84.5398L165.215 86.1182L167.441 85.2284L166.811 83.65Z" fill="#407BFF"/>
<path d="M149.469 93.599L147.242 94.4888L147.873 96.0671L150.1 95.1773L149.469 93.599Z" fill="#407BFF"/>
<path d="M153.147 92.1297L150.92 93.0195L151.551 94.5979L153.777 93.7081L153.147 92.1297Z" fill="#407BFF"/>
<path d="M156.822 90.6595L154.596 91.5493L155.226 93.1273L157.453 92.2375L156.822 90.6595Z" fill="#407BFF"/>
<path d="M160.498 89.1915L158.271 90.0813L158.902 91.6597L161.129 90.7699L160.498 89.1915Z" fill="#407BFF"/>
<path d="M164.176 87.7222L161.949 88.6121L162.58 90.1901L164.806 89.3002L164.176 87.7222Z" fill="#407BFF"/>
<path d="M167.852 86.253L165.625 87.1428L166.256 88.7208L168.482 87.831L167.852 86.253Z" fill="#407BFF"/>
<path d="M150.512 96.2037L148.285 97.0935L148.916 98.6715L151.142 97.7817L150.512 96.2037Z" fill="#407BFF"/>
<path d="M154.188 94.7357L151.961 95.6255L152.592 97.2035L154.818 96.3137L154.188 94.7357Z" fill="#407BFF"/>
<path d="M157.863 93.2667L155.637 94.1565L156.267 95.7345L158.494 94.8447L157.863 93.2667Z" fill="#407BFF"/>
<path d="M161.539 91.7989L159.312 92.6887L159.943 94.2667L162.17 93.3769L161.539 91.7989Z" fill="#407BFF"/>
<path d="M165.217 90.3309L162.99 91.2207L163.621 92.7991L165.848 91.9093L165.217 90.3309Z" fill="#407BFF"/>
<path d="M168.893 88.8587L166.666 89.7485L167.297 91.3269L169.523 90.4371L168.893 88.8587Z" fill="#407BFF"/>
<path d="M151.553 98.8106L149.326 99.7004L149.957 101.279L152.184 100.389L151.553 98.8106Z" fill="#407BFF"/>
<path d="M155.229 97.3416L153.002 98.2314L153.633 99.8098L155.859 98.92L155.229 97.3416Z" fill="#407BFF"/>
<path d="M158.904 95.8724L156.678 96.7622L157.309 98.3406L159.535 97.4508L158.904 95.8724Z" fill="#407BFF"/>
<path d="M162.582 94.4032L160.355 95.293L160.986 96.871L163.213 95.9811L162.582 94.4032Z" fill="#407BFF"/>
<path d="M166.258 92.9329L164.031 93.8228L164.662 95.4007L166.888 94.5109L166.258 92.9329Z" fill="#407BFF"/>
<path d="M169.934 91.4647L167.707 92.3545L168.338 93.9325L170.564 93.0427L169.934 91.4647Z" fill="#407BFF"/>
</g>
<path d="M163.929 81.7744C163.792 81.433 163.958 81.0453 164.3 80.9088C164.641 80.7723 165.029 80.9386 165.165 81.2801C165.302 81.6215 165.136 82.0092 164.794 82.1457C164.453 82.2822 164.065 82.1163 163.929 81.7744Z" fill="white"/>
<path d="M163.378 91.0615C163.241 90.7201 163.408 90.3324 163.749 90.1959C164.091 90.0594 164.478 90.2257 164.615 90.5672C164.751 90.9087 164.585 91.2963 164.243 91.4328C163.902 91.5693 163.514 91.403 163.378 91.0615Z" fill="white"/>
<path d="M154.983 91.3936C154.847 91.0521 155.013 90.6644 155.355 90.5279C155.696 90.3914 156.084 90.5578 156.22 90.8992C156.357 91.2407 156.19 91.6284 155.849 91.7649C155.507 91.9018 155.12 91.7355 154.983 91.3936Z" fill="white"/>
<path d="M149.714 99.5442C149.577 99.2027 149.744 98.8151 150.085 98.6786C150.426 98.5421 150.814 98.7084 150.951 99.0499C151.087 99.3913 150.921 99.779 150.579 99.9155C150.238 100.052 149.85 99.8857 149.714 99.5442Z" fill="white"/>
<path d="M150.333 99.5438C150.287 99.5438 150.24 99.5312 150.199 99.5039C150.084 99.4299 150.051 99.2771 150.126 99.1624L155.396 91.0123C155.439 90.9451 155.513 90.9027 155.593 90.8997L163.764 90.5759L164.302 81.5123C164.31 81.3767 164.431 81.275 164.563 81.2805C164.699 81.2889 164.803 81.4056 164.795 81.5417L164.243 90.8283C164.236 90.9552 164.133 91.0551 164.006 91.0602L155.74 91.3878L150.54 99.4304C150.493 99.5039 150.414 99.5438 150.333 99.5438Z" fill="white"/>
<path d="M136.693 67.4638C136.05 70.8599 135.648 77.8344 137.514 91.6457H154.328C154.025 89.2504 152.822 76.4736 155.312 64.3117C155.312 64.3117 152.43 63.7333 149.683 63.601C147.535 63.4973 144.424 63.4288 142.536 63.6015C141.747 63.6733 140.973 63.7871 140.284 63.9093C138.465 64.2306 137.036 65.6494 136.693 67.4638Z" fill="#263238"/>
<path opacity="0.2" d="M139.338 72.6936L136.179 72.9456C136.066 77.0322 136.347 82.9962 137.515 91.644H137.666C139.56 85.4154 142.072 76.5114 139.338 72.6936Z" fill="black"/>
<path opacity="0.2" d="M147.357 164.332L147.518 168.084H150.663L150.502 164.332H147.357Z" fill="black"/>
<path d="M150.291 53.9153C149.484 56.9288 149.164 58.734 147.304 59.9869C144.507 61.8718 141.024 59.7084 140.915 56.5143C140.817 53.6394 142.154 49.1941 145.388 48.5868C148.575 47.9883 151.099 50.9018 150.291 53.9153Z" fill="#7F3E3B"/>
<path d="M143.237 53.9351L141.604 54.3597L143.124 50.4176C142.959 50.1169 142.526 48.7469 142.984 47.3768C143.104 47.0156 143.436 46.7712 143.817 46.7636C147.203 46.6977 150.741 48.5986 152.525 50.0354C152.869 50.3122 152.953 50.7998 152.723 51.1762C152.332 51.8154 151.827 52.3047 151.19 52.9532C151.156 54.0569 149.354 59.0444 148.356 59.6043C147.359 60.1641 145.451 59.9369 144.944 59.0268C144.436 58.1175 142.721 56.91 143.237 53.9351Z" fill="#263238"/>
<path d="M144.748 53.9977C144.565 54.7941 144.064 55.4879 143.531 55.9075C142.73 56.5383 142.103 55.9562 142.136 55.0288C142.166 54.1943 142.618 52.8608 143.514 52.5895C144.396 52.3219 144.958 53.0872 144.748 53.9977Z" fill="#7F3E3B"/>
<path d="M173.494 170.686C173.492 170.282 173.545 169.893 173.725 169.761C173.788 169.714 173.896 169.678 174.051 169.765C174.138 169.814 174.196 169.893 174.226 170C174.372 170.522 173.753 171.625 173.726 171.671C173.711 171.698 173.681 171.713 173.65 171.708C173.619 171.704 173.595 171.68 173.589 171.65C173.547 171.45 173.497 171.062 173.494 170.686ZM174.101 170.184C174.1 170.131 174.095 170.083 174.083 170.04C174.063 169.972 174.029 169.924 173.978 169.895C173.885 169.843 173.839 169.862 173.813 169.881C173.611 170.029 173.611 170.823 173.698 171.408C173.845 171.115 174.103 170.551 174.101 170.184Z" fill="#407BFF"/>
<path d="M173.586 171.635C173.586 171.625 173.588 171.615 173.592 171.604C173.76 171.224 174.435 170.468 174.791 170.523C174.874 170.536 174.979 170.595 175.001 170.799C175.017 170.952 174.975 171.09 174.876 171.213C174.55 171.615 173.704 171.705 173.668 171.709C173.641 171.712 173.616 171.7 173.6 171.679C173.591 171.665 173.586 171.65 173.586 171.635ZM174.856 170.86C174.856 170.845 174.855 170.83 174.853 170.815C174.839 170.681 174.786 170.673 174.768 170.67C174.555 170.637 174.024 171.151 173.793 171.54C174.04 171.498 174.546 171.383 174.76 171.119C174.825 171.04 174.856 170.954 174.856 170.86Z" fill="#407BFF"/>
<path d="M173.635 171.656L170.567 171.873L168.844 164.535L171.911 164.317L173.635 171.656Z" fill="#7F3E3B"/>
<path d="M173.625 170.951L170.205 170.648C170.077 170.637 169.959 170.716 169.92 170.838L169.055 173.567C168.966 173.85 169.161 174.143 169.456 174.164C170.691 174.252 172.481 174.337 174.031 174.475C175.844 174.635 174.67 174.631 176.796 174.819C178.081 174.933 178.553 173.665 178.025 173.499C175.623 172.747 175.188 172.227 174.358 171.261C174.181 171.056 173.895 170.975 173.625 170.951Z" fill="#263238"/>
<path opacity="0.2" d="M168.844 164.537L169.731 168.319L172.8 168.102L171.913 164.319L168.844 164.537Z" fill="black"/>
<path d="M143.479 91.6453C143.479 91.6453 150.71 115.792 153.454 124.756C156.458 134.571 167.89 167.135 167.89 167.135L173.432 165.917C173.432 165.917 165.602 137.939 162.355 124.25C159.861 113.735 154.328 91.6453 154.328 91.6453H143.479Z" fill="#407BFF"/>
<path d="M166.917 165.421C166.892 165.424 167.462 167.586 167.462 167.586L174.129 166.87L174.099 164.889L166.917 165.421Z" fill="#263238"/>
<path opacity="0.3" d="M147.485 102.837C151.486 103.364 153.08 117.309 153.679 125.492C153.603 125.233 153.523 124.987 153.453 124.754C151.956 119.861 149.121 110.43 146.854 102.881C147.041 102.819 147.255 102.806 147.485 102.837Z" fill="black"/>
<path d="M137.514 91.6453C137.514 91.6453 139.939 115.162 140.984 124.736C142.07 134.694 146.15 167.357 146.15 167.357H151.475C151.475 167.357 150.83 135.29 150.615 125.497C150.381 114.821 148.566 91.6453 148.566 91.6453H137.514Z" fill="#407BFF"/>
<path d="M145.322 165.236C145.297 165.236 145.622 167.447 145.622 167.447H152.1L152.275 165.474L145.322 165.236Z" fill="#263238"/>
<path d="M114.771 113.771C117.547 118.174 123.367 119.492 127.769 116.717C132.172 113.941 133.491 108.122 130.715 103.719C127.94 99.317 122.12 97.9969 117.718 100.772C113.315 103.548 111.996 109.368 114.771 113.771ZM129.454 104.514C131.79 108.22 130.68 113.119 126.974 115.455C123.268 117.792 118.369 116.681 116.033 112.976C113.696 109.269 114.807 104.37 118.513 102.034C122.219 99.6975 127.117 100.808 129.454 104.514Z" fill="#263238"/>
<path opacity="0.2" d="M129.834 110.352C128.946 114.267 125.052 116.722 121.138 115.834C117.221 114.947 114.767 111.053 115.654 107.138C116.542 103.222 120.435 100.767 124.351 101.654C128.267 102.542 130.722 106.436 129.834 110.352Z" fill="#407BFF"/>
<path d="M130.975 102.576L131.859 103.978C131.993 104.191 131.93 104.472 131.717 104.606C131.504 104.74 131.222 104.676 131.088 104.464L130.205 103.062C130.071 102.849 130.135 102.568 130.348 102.434C130.56 102.299 130.841 102.363 130.975 102.576Z" fill="#263238"/>
<path d="M136.69 98.5928C135.669 99.29 134.656 100 133.655 100.73C132.654 101.46 131.662 102.204 130.7 102.994C130.484 103.172 130.406 103.479 130.53 103.744C130.676 104.057 131.049 104.192 131.362 104.046C132.49 103.518 133.589 102.944 134.68 102.356C135.769 101.767 136.847 101.159 137.916 100.538C138.827 100.009 139.729 99.4681 140.627 98.92C140.886 98.7621 140.965 98.4219 140.803 98.1657L140.075 97.0115C139.914 96.7553 139.573 96.6801 139.319 96.8452C138.438 97.4185 137.561 97.9998 136.69 98.5928Z" fill="#263238"/>
<path d="M141.373 68.6401C140.86 71.1614 140.308 73.6738 139.735 76.1804L137.993 83.6795C137.43 86.1239 136.947 88.6036 136.505 91.1177L135.183 98.6798L135.18 98.697C135.067 99.3421 134.453 99.7735 133.808 99.6609C133.246 99.5626 132.846 99.0826 132.827 98.5341C132.737 95.9091 132.777 93.313 132.924 90.7002C133.08 88.0958 133.321 85.4674 133.751 82.8538C134.16 80.2838 134.62 77.7432 135.112 75.2052C135.603 72.6684 136.136 70.1421 136.718 67.6267C137.014 66.3444 138.294 65.5456 139.576 65.8417C140.836 66.1332 141.629 67.3797 141.373 68.6401Z" fill="#407BFF"/>
<path d="M134.822 97.9968C134.61 97.7721 134.29 97.6785 133.989 97.7503L133.306 97.9133C132.956 97.9968 132.694 98.2875 132.648 98.6441L132.45 100.16C132.393 100.595 132.486 101.036 132.712 101.411L133.65 102.962C133.897 103.289 134.31 103.443 134.711 103.358L135.688 103.151C136.301 103.02 136.667 102.389 136.474 101.793L136.218 101.002C136.218 101.002 136.203 99.4563 134.822 97.9968Z" fill="#7F3E3B"/>
<path d="M144.645 67.1824C146.173 71.2371 140.887 77.0192 140.887 77.0192L134.197 74.8067C134.197 74.8067 134.709 69.2744 137.031 66.1555C139.899 62.3029 143.481 64.0963 144.645 67.1824Z" fill="#263238"/>
</svg>
